<svg width="24" height="24" viewBox="0 0 24 24" fill="none" xmlns="http://www.w3.org/2000/svg">
<path fill-rule="evenodd" clip-rule="evenodd" d="M0 3C0 2.44772 0.447715 2 1 2H23C23.5523 2 24 2.44772 24 3V21C24 21.5523 23.5523 22 23 22H1C0.447715 22 0 21.5523 0 21V3ZM1 3V21H8V3H1ZM15 21H9V3H15V21ZM16 21H23V3H16V21Z" fill="white"/>
<path d="M5.32656 13.0938C5.32656 12.8802 5.26667 12.7109 5.14687 12.5859C5.02969 12.4583 4.82917 12.3411 4.54531 12.2344C4.26146 12.1276 4.01667 12.0221 3.81094 11.918C3.60521 11.8112 3.42812 11.6901 3.27969 11.5547C3.13385 11.4167 3.01927 11.2552 2.93594 11.0703C2.85521 10.8854 2.81484 10.6654 2.81484 10.4102C2.81484 9.97005 2.95547 9.60938 3.23672 9.32812C3.51797 9.04688 3.89167 8.88281 4.35781 8.83594V8H4.98281V8.84766C5.44375 8.91276 5.80443 9.10547 6.06484 9.42578C6.32526 9.74349 6.45547 10.1562 6.45547 10.6641H5.32656C5.32656 10.3516 5.26146 10.1185 5.13125 9.96484C5.00365 9.80859 4.83177 9.73047 4.61562 9.73047C4.40208 9.73047 4.23672 9.79167 4.11953 9.91406C4.00234 10.0339 3.94375 10.2005 3.94375 10.4141C3.94375 10.612 4.00104 10.7708 4.11562 10.8906C4.23021 11.0104 4.44245 11.1328 4.75234 11.2578C5.06484 11.3828 5.32135 11.5013 5.52187 11.6133C5.7224 11.7227 5.89167 11.8477 6.02969 11.9883C6.16771 12.1263 6.27318 12.2852 6.34609 12.4648C6.41901 12.6419 6.45547 12.849 6.45547 13.0859C6.45547 13.5286 6.31745 13.888 6.04141 14.1641C5.76536 14.4401 5.38516 14.6029 4.90078 14.6523V15.4297H4.27969V14.6562C3.74583 14.599 3.33177 14.4102 3.0375 14.0898C2.74583 13.7669 2.6 13.3385 2.6 12.8047H3.72891C3.72891 13.1146 3.80182 13.3529 3.94766 13.5195C4.09609 13.6836 4.30833 13.7656 4.58437 13.7656C4.81354 13.7656 4.99453 13.7057 5.12734 13.5859C5.26016 13.4635 5.32656 13.2995 5.32656 13.0938Z" fill="white"/>
<path d="M12.7266 13.0938C12.7266 12.8802 12.6667 12.7109 12.5469 12.5859C12.4297 12.4583 12.2292 12.3411 11.9453 12.2344C11.6615 12.1276 11.4167 12.0221 11.2109 11.918C11.0052 11.8112 10.8281 11.6901 10.6797 11.5547C10.5339 11.4167 10.4193 11.2552 10.3359 11.0703C10.2552 10.8854 10.2148 10.6654 10.2148 10.4102C10.2148 9.97005 10.3555 9.60938 10.6367 9.32812C10.918 9.04688 11.2917 8.88281 11.7578 8.83594V8H12.3828V8.84766C12.8438 8.91276 13.2044 9.10547 13.4648 9.42578C13.7253 9.74349 13.8555 10.1562 13.8555 10.6641H12.7266C12.7266 10.3516 12.6615 10.1185 12.5312 9.96484C12.4036 9.80859 12.2318 9.73047 12.0156 9.73047C11.8021 9.73047 11.6367 9.79167 11.5195 9.91406C11.4023 10.0339 11.3438 10.2005 11.3438 10.4141C11.3438 10.612 11.401 10.7708 11.5156 10.8906C11.6302 11.0104 11.8424 11.1328 12.1523 11.2578C12.4648 11.3828 12.7214 11.5013 12.9219 11.6133C13.1224 11.7227 13.2917 11.8477 13.4297 11.9883C13.5677 12.1263 13.6732 12.2852 13.7461 12.4648C13.819 12.6419 13.8555 12.849 13.8555 13.0859C13.8555 13.5286 13.7174 13.888 13.4414 14.1641C13.1654 14.4401 12.7852 14.6029 12.3008 14.6523V15.4297H11.6797V14.6562C11.1458 14.599 10.7318 14.4102 10.4375 14.0898C10.1458 13.7669 10 13.3385 10 12.8047H11.1289C11.1289 13.1146 11.2018 13.3529 11.3477 13.5195C11.4961 13.6836 11.7083 13.7656 11.9844 13.7656C12.2135 13.7656 12.3945 13.7057 12.5273 13.5859C12.6602 13.4635 12.7266 13.2995 12.7266 13.0938Z" fill="white"/>
<path d="M20.3266 13.0938C20.3266 12.8802 20.2667 12.7109 20.1469 12.5859C20.0297 12.4583 19.8292 12.3411 19.5453 12.2344C19.2615 12.1276 19.0167 12.0221 18.8109 11.918C18.6052 11.8112 18.4281 11.6901 18.2797 11.5547C18.1339 11.4167 18.0193 11.2552 17.9359 11.0703C17.8552 10.8854 17.8148 10.6654 17.8148 10.4102C17.8148 9.97005 17.9555 9.60938 18.2367 9.32812C18.518 9.04688 18.8917 8.88281 19.3578 8.83594V8H19.9828V8.84766C20.4438 8.91276 20.8044 9.10547 21.0648 9.42578C21.3253 9.74349 21.4555 10.1562 21.4555 10.6641H20.3266C20.3266 10.3516 20.2615 10.1185 20.1313 9.96484C20.0036 9.80859 19.8318 9.73047 19.6156 9.73047C19.4021 9.73047 19.2367 9.79167 19.1195 9.91406C19.0023 10.0339 18.9438 10.2005 18.9438 10.4141C18.9438 10.612 19.001 10.7708 19.1156 10.8906C19.2302 11.0104 19.4424 11.1328 19.7523 11.2578C20.0648 11.3828 20.3214 11.5013 20.5219 11.6133C20.7224 11.7227 20.8917 11.8477 21.0297 11.9883C21.1677 12.1263 21.2732 12.2852 21.3461 12.4648C21.419 12.6419 21.4555 12.849 21.4555 13.0859C21.4555 13.5286 21.3174 13.888 21.0414 14.1641C20.7654 14.4401 20.3852 14.6029 19.9008 14.6523V15.4297H19.2797V14.6562C18.7458 14.599 18.3318 14.4102 18.0375 14.0898C17.7458 13.7669 17.6 13.3385 17.6 12.8047H18.7289C18.7289 13.1146 18.8018 13.3529 18.9477 13.5195C19.0961 13.6836 19.3083 13.7656 19.5844 13.7656C19.8135 13.7656 19.9945 13.7057 20.1273 13.5859C20.2602 13.4635 20.3266 13.2995 20.3266 13.0938Z" fill="white"/>
</svg>
