<svg width="24" height="24" viewBox="0 0 24 24" fill="none" xmlns="http://www.w3.org/2000/svg">
<path fill-rule="evenodd" clip-rule="evenodd" d="M21 23H1V8.7L1.09 8.67C4.28 7.51 7.609 6.92 11 6.92C14.391 6.92 17.72 7.51 20.91 8.67L21 8.7V23ZM18 4C17.17 4 16.5 3.33 16.5 2.5C16.5 1.67 17.17 1 18 1C18.83 1 19.5 1.67 19.5 2.5C19.5 3.33 18.83 4 18 4ZM22.5 1.86H20.41C20.13 0.79 19.15 0 18 0C16.62 0 15.5 1.12 15.5 2.5C15.5 3.88 16.62 5 18 5C19.21 5 20.22 4.13 20.45 2.99C20.46 2.95 20.47 2.9 20.47 2.86H22.5C22.78 2.86 23 3.08 23 3.36V10.64C23 10.92 22.78 11.14 22.5 11.14H22V8.7C22 8.28 21.74 7.9 21.34 7.76L21.25 7.73C17.939 6.52 14.47 5.92 11 5.92C7.53 5.92 4.061 6.52 0.75 7.73L0.66 7.76C0.26 7.9 0 8.28 0 8.7V23C0 23.55 0.45 24 1 24H21C21.55 24 22 23.55 22 23V12.14H22.5C23.33 12.14 24 11.47 24 10.64V3.36C24 2.53 23.33 1.86 22.5 1.86Z" fill="white"/>
<path fill-rule="evenodd" clip-rule="evenodd" d="M10.5703 14.6196C10.5953 14.6196 10.6173 14.6036 10.6253 14.5816C10.6253 14.5816 10.8153 14.0096 10.9323 13.6596C10.9543 13.5966 11.0463 13.5966 11.0673 13.6596C11.1843 14.0096 11.3763 14.5816 11.3763 14.5816C11.3833 14.6036 11.4053 14.6196 11.4293 14.6196H12.4283C12.4973 14.6196 12.5263 14.7046 12.4703 14.7436C12.1643 14.9596 11.6623 15.3136 11.6623 15.3136C11.6473 15.3246 11.6383 15.3416 11.6383 15.3586C11.6383 15.3646 11.6393 15.3696 11.6413 15.3756C11.6413 15.3756 11.8333 15.9476 11.9503 16.2976C11.9713 16.3616 11.8973 16.4136 11.8413 16.3746C11.5353 16.1586 11.0333 15.8046 11.0333 15.8046C11.0133 15.7896 10.9863 15.7896 10.9663 15.8046C10.9663 15.8046 10.4653 16.1576 10.1583 16.3746C10.1033 16.4136 10.0283 16.3606 10.0493 16.2976C10.1673 15.9476 10.3583 15.3756 10.3583 15.3756C10.3603 15.3696 10.3603 15.3646 10.3603 15.3586C10.3603 15.3416 10.3523 15.3246 10.3373 15.3136C10.3373 15.3136 9.83631 14.9596 9.52931 14.7436C9.47331 14.7046 9.50331 14.6196 9.57131 14.6196H10.5703Z" fill="white"/>
<path fill-rule="evenodd" clip-rule="evenodd" d="M15.5703 14.6196C15.5953 14.6196 15.6173 14.6036 15.6253 14.5816C15.6253 14.5816 15.8153 14.0096 15.9323 13.6596C15.9543 13.5966 16.0463 13.5966 16.0673 13.6596C16.1843 14.0096 16.3763 14.5816 16.3763 14.5816C16.3833 14.6036 16.4053 14.6196 16.4293 14.6196H17.4283C17.4973 14.6196 17.5263 14.7046 17.4703 14.7436C17.1643 14.9596 16.6623 15.3136 16.6623 15.3136C16.6473 15.3246 16.6383 15.3416 16.6383 15.3586C16.6383 15.3646 16.6393 15.3696 16.6413 15.3756C16.6413 15.3756 16.8333 15.9476 16.9503 16.2976C16.9713 16.3616 16.8973 16.4136 16.8413 16.3746C16.5353 16.1586 16.0333 15.8046 16.0333 15.8046C16.0133 15.7896 15.9863 15.7896 15.9663 15.8046C15.9663 15.8046 15.4653 16.1576 15.1583 16.3746C15.1033 16.4136 15.0283 16.3606 15.0493 16.2976C15.1673 15.9476 15.3583 15.3756 15.3583 15.3756C15.3603 15.3696 15.3603 15.3646 15.3603 15.3586C15.3603 15.3416 15.3523 15.3246 15.3373 15.3136C15.3373 15.3136 14.8363 14.9596 14.5293 14.7436C14.4733 14.7046 14.5033 14.6196 14.5713 14.6196H15.5703Z" fill="white"/>
<path fill-rule="evenodd" clip-rule="evenodd" d="M5.57031 17.6196C5.59531 17.6196 5.61731 17.6036 5.62531 17.5816C5.62531 17.5816 5.81531 17.0096 5.93231 16.6596C5.95431 16.5966 6.04631 16.5966 6.06731 16.6596C6.18431 17.0096 6.37631 17.5816 6.37631 17.5816C6.38331 17.6036 6.40531 17.6196 6.42931 17.6196H7.42831C7.49731 17.6196 7.52631 17.7046 7.47031 17.7436C7.16431 17.9596 6.66231 18.3136 6.66231 18.3136C6.64731 18.3246 6.63831 18.3416 6.63831 18.3586C6.63831 18.3646 6.63931 18.3696 6.64131 18.3756C6.64131 18.3756 6.83331 18.9476 6.95031 19.2976C6.97131 19.3616 6.89731 19.4136 6.84131 19.3746C6.53531 19.1586 6.03331 18.8046 6.03331 18.8046C6.01331 18.7896 5.98631 18.7896 5.96631 18.8046C5.96631 18.8046 5.46531 19.1576 5.15831 19.3746C5.10331 19.4136 5.02831 19.3606 5.04931 19.2976C5.16731 18.9476 5.35831 18.3756 5.35831 18.3756C5.36031 18.3696 5.36031 18.3646 5.36031 18.3586C5.36031 18.3416 5.35231 18.3246 5.33731 18.3136C5.33731 18.3136 4.83631 17.9596 4.52931 17.7436C4.47331 17.7046 4.50331 17.6196 4.57131 17.6196H5.57031Z" fill="white"/>
<path fill-rule="evenodd" clip-rule="evenodd" d="M14 20.5H18V11.5H14V20.5ZM9 20.5H13V11.5H9V20.5ZM4 20.5H8V11.5H4V20.5ZM18 10.5H4C3.45 10.5 3 10.95 3 11.5V20.5C3 21.05 3.45 21.5 4 21.5H18C18.55 21.5 19 21.05 19 20.5V11.5C19 10.95 18.55 10.5 18 10.5Z" fill="white"/>
</svg>
