<svg width="24" height="24" viewBox="0 0 24 24" fill="none" xmlns="http://www.w3.org/2000/svg">
<g clip-path="url(#clip0)">
<path fill-rule="evenodd" clip-rule="evenodd" d="M5.91301 17.3507C5.77248 17.2091 5.61273 17.0518 5.4382 16.88C4.59015 16.0452 3.39341 14.8671 2.35998 13.4686C1.11083 11.7781 0.00099284 9.64149 8.47278e-05 7.19362C-0.00849658 5.55986 0.635077 3.9905 1.78784 2.82972C2.94105 1.66848 4.50943 1.01101 6.14813 1.00002L6.15484 0.999969C8.41512 0.999992 10.081 1.80967 11.1791 2.62734C11.5011 2.86709 11.7742 3.10734 12 3.328C12.2258 3.10734 12.499 2.86709 12.8209 2.62735C13.919 1.80967 15.5849 0.999992 17.8452 0.999991L17.8519 0.999991C19.4882 1.01099 21.0545 1.66657 22.2073 2.8248C23.3599 3.98281 24.0051 5.54899 24 7.18069C23.9995 9.63248 22.899 11.7702 21.6521 13.4636C20.5955 14.8985 19.3682 16.0972 18.5053 16.94C18.3527 17.0891 18.2114 17.2271 18.0845 17.3533C16.4421 19.0071 15.0967 20.3466 14.1615 21.2731C13.6936 21.7366 13.3284 22.0967 13.08 22.3411C12.9557 22.4633 12.8607 22.5566 12.7967 22.6195L12.6996 22.7145L12 22C12 22 14.0947 19.9517 17.3771 16.6464C17.5124 16.5119 17.6601 16.3675 17.8177 16.2135C19.7054 14.3683 23 11.148 23 7.17898C23.0046 5.81306 22.4647 4.501 21.4985 3.53025C20.5323 2.55949 19.2186 2.00922 17.8452 1.99999C15.2156 1.99999 13.522 3.2282 12.6671 4.07455C12.2177 4.51944 12 4.85883 12 4.85883C12 4.85883 11.7824 4.51945 11.333 4.07456C10.4781 3.22821 8.78441 1.99999 6.15484 1.99999C4.77941 2.00922 3.46394 2.5611 2.49739 3.53437C1.53085 4.50764 0.992299 5.82269 1.00008 7.19062C1.00009 11.1037 4.24424 14.2996 6.12358 16.151C6.30396 16.3287 6.47177 16.4941 6.62294 16.6464C9.90536 19.9517 12 22 12 22L11.3008 22.7149L11.2034 22.6195C11.1393 22.5566 11.0443 22.4633 10.9201 22.3411C10.6717 22.0967 10.3065 21.7366 9.83862 21.2731C8.90296 20.3462 7.55636 19.0055 5.91301 17.3507ZM12 22L12.6996 22.7145C12.311 23.0946 11.6895 23.095 11.3008 22.7149L12 22Z" fill="white"/>
<path d="M15.108 16.3L13.9242 12.4795L17 10.1205L13.1912 10.1205L12.0124 6.29999L10.8286 10.1205L7 10.1205L10.0956 12.4795L8.91679 16.3L12.0124 13.9359L15.108 16.3Z" fill="white"/>
</g>
<defs>
<clipPath id="clip0">
<rect width="24" height="24" fill="white"/>
</clipPath>
</defs>
</svg>
